<?xml version="1.0" encoding="UTF-8" standalone="no"?>
<svg
   viewBox="0 0 48 48"
   width="96px"
   height="96px"
   version="1.1"
   id="svg2"
   sodipodi:docname="bluesky.svg"
   inkscape:version="1.4 (86a8ad7, 2024-10-11)"
   xmlns:inkscape="http://www.inkscape.org/namespaces/inkscape"
   xmlns:sodipodi="http://sodipodi.sourceforge.net/DTD/sodipodi-0.dtd"
   xmlns="http://www.w3.org/2000/svg"
   xmlns:svg="http://www.w3.org/2000/svg">
  <defs
     id="defs2" />
  <sodipodi:namedview
     id="namedview2"
     pagecolor="#ffffff"
     bordercolor="#000000"
     borderopacity="0.25"
     inkscape:showpageshadow="2"
     inkscape:pageopacity="0.0"
     inkscape:pagecheckerboard="0"
     inkscape:deskcolor="#d1d1d1"
     inkscape:zoom="4.8515625"
     inkscape:cx="41.636071"
     inkscape:cy="107.69726"
     inkscape:window-width="3840"
     inkscape:window-height="2081"
     inkscape:window-x="3831"
     inkscape:window-y="-9"
     inkscape:window-maximized="1"
     inkscape:current-layer="svg2" />
  <path
     fill="#03a9f4"
     d="m 23.690821,0.90821257 a 22.988728,22.988728 0 1 0 0,45.97745543 22.988728,22.988728 0 1 0 0,-45.97745543 z"
     id="path1"
     style="fill:#1083fe;fill-opacity:1;stroke-width:1.14944" />
  <path
     d="m 15.382214,12.634675 c 3.384013,2.540497 7.023908,7.69158 8.360292,10.455959 1.336481,-2.764175 4.976171,-7.915506 8.360292,-10.455959 2.441726,-1.833129 6.397952,-3.2514949 6.397952,1.261822 0,0.901376 -0.516798,7.571997 -0.819897,8.654948 -1.053585,3.765079 -4.892813,4.725382 -8.307874,4.144171 5.969456,1.015975 7.488021,4.381256 4.208488,7.746548 -6.228483,6.391337 -8.952143,-1.60361 -9.650365,-3.652209 -0.127941,-0.375561 -0.187806,-0.551242 -0.188682,-0.401848 -8.86e-4,-0.149404 -0.06072,0.02626 -0.188691,0.401848 -0.697912,2.048599 -3.421519,10.043748 -9.650355,3.652209 -3.279597,-3.365292 -1.761074,-6.730777 4.208488,-7.746548 -3.415156,0.581211 -7.254437,-0.379092 -8.3078756,-4.144171 -0.3031087,-1.083046 -0.8198961,-7.753667 -0.8198961,-8.654948 0,-4.5133169 3.9563337,-3.094951 6.3979527,-1.261822 z"
     fill="#1185fe"
     id="path1-0"
     style="fill:#ffffff;fill-opacity:1;stroke-width:0.0508905" />
</svg>
