<?xml version="1.0" encoding="UTF-8" standalone="no"?>
<svg
   xmlns:dc="http://purl.org/dc/elements/1.1/"
   xmlns:cc="http://creativecommons.org/ns#"
   xmlns:rdf="http://www.w3.org/1999/02/22-rdf-syntax-ns#"
   xmlns:svg="http://www.w3.org/2000/svg"
   xmlns="http://www.w3.org/2000/svg"
   xmlns:sodipodi="http://sodipodi.sourceforge.net/DTD/sodipodi-0.dtd"
   xmlns:inkscape="http://www.inkscape.org/namespaces/inkscape"
   viewBox="0 0 48 48"
   width="96px"
   height="96px"
   version="1.1"
   id="svg849"
   sodipodi:docname="github.svg"
   inkscape:version="0.92.4 (5da689c313, 2019-01-14)">
  <metadata
     id="metadata855">
    <rdf:RDF>
      <cc:Work
         rdf:about="">
        <dc:format>image/svg+xml</dc:format>
        <dc:type
           rdf:resource="http://purl.org/dc/dcmitype/StillImage" />
      </cc:Work>
    </rdf:RDF>
  </metadata>
  <defs
     id="defs853" />
  <sodipodi:namedview
     pagecolor="#ffffff"
     bordercolor="#666666"
     borderopacity="1"
     objecttolerance="10"
     gridtolerance="10"
     guidetolerance="10"
     inkscape:pageopacity="0"
     inkscape:pageshadow="2"
     inkscape:window-width="1700"
     inkscape:window-height="1074"
     id="namedview851"
     showgrid="false"
     inkscape:zoom="6.9532167"
     inkscape:cx="54.29642"
     inkscape:cy="32.454706"
     inkscape:window-x="5395"
     inkscape:window-y="730"
     inkscape:window-maximized="1"
     inkscape:current-layer="svg849" />
  <linearGradient
     id="rL2wppHyxHVbobwndsT6Ca"
     x1="4"
     x2="44"
     y1="23.508"
     y2="23.508"
     gradientUnits="userSpaceOnUse">
    <stop
       offset="0"
       stop-color="#4c4c4c"
       id="stop836" />
    <stop
       offset="1"
       stop-color="#343434"
       id="stop838" />
  </linearGradient>
  <path
     d="M 24,1.3393609 C 11.484529,1.3393609 1.3393609,11.484529 1.3393609,24 c 0,10.069255 6.5727184,18.594187 15.6585021,21.545736 H 31.002137 C 40.087921,42.594187 46.660639,34.069255 46.660639,24 46.660639,11.484529 36.515471,1.3393609 24,1.3393609 Z"
     id="path841"
     style="fill:#616161;fill-opacity:1;stroke-width:1.13303196"
     inkscape:connector-curvature="0" />
  <path
     d="m 30.809522,44.390043 -0.01133,-6.569319 c 0,-1.063917 -0.249267,-2.102908 -0.727407,-3.044457 6.391433,-1.283725 9.501606,-5.062387 9.501606,-11.530866 0,-2.554987 -0.753466,-4.810854 -2.238871,-6.707549 0.113303,-0.359172 0.197148,-0.730806 0.249267,-1.111505 0.21301,-1.551121 -0.02606,-2.565184 -0.218675,-3.380967 L 37.33352,11.913948 C 37.122776,11.012055 36.87011,10.368493 36.859913,10.3413 L 36.734146,10.021785 36.60838,9.7022698 36.266204,9.6660127 35.922895,9.6297557 c 0,0 -0.225473,-0.023794 -0.567649,-0.023794 -0.47474,0 -1.178353,0.047587 -1.843443,0.2730607 l -0.222074,0.07478 c -0.838444,0.2821256 -1.630433,0.5495206 -2.738538,1.2112116 -0.324047,0.193748 -0.678686,0.41469 -1.058252,0.661691 C 27.777529,11.401818 25.931819,11.185409 24,11.185409 c -1.951081,0 -3.812653,0.217542 -5.539393,0.646961 -0.384098,-0.249267 -0.741003,-0.472474 -1.067316,-0.667356 -1.108106,-0.661691 -1.900095,-0.927953 -2.738539,-1.2112111 l -0.222074,-0.07478 c -0.662824,-0.2254734 -1.367569,-0.2730607 -1.84231,-0.2730607 -0.342175,0 -0.567649,0.023794 -0.567649,0.023794 l -0.342175,0.036257 -0.33991,0.035124 -0.1269,0.3183818 -0.128032,0.320649 c -0.01133,0.02946 -0.263997,0.673021 -0.474741,1.576046 l -0.03059,0.1303 c -0.192616,0.81465 -0.431686,1.829846 -0.218676,3.379833 0.05439,0.392029 0.141629,0.776127 0.260598,1.145496 -1.4559463,1.887631 -2.1935501,4.131034 -2.1935501,6.673558 0,6.452617 3.1135721,10.229012 9.5140691,11.522936 -0.219808,0.439616 -0.390896,0.904159 -0.51213,1.386831 -0.223208,0.07591 -0.428286,0.126899 -0.609571,0.155225 -0.269662,0.04079 -0.551787,0.06118 -0.837311,0.06118 -0.77726,0 -1.387964,-0.151826 -1.625901,-0.293455 -0.354639,-0.210744 -0.988004,-0.823715 -1.602107,-1.719943 -0.524594,-0.764796 -1.342643,-1.765264 -2.257,-2.183352 -0.7908561,-0.361438 -1.6281667,-0.568782 -2.2989216,-0.568782 -0.1563584,0 -0.3002535,0.01133 -0.42602,0.03172 -0.5857775,0.09291 -1.0752473,0.41469 -1.3415098,0.883765 -0.2300055,0.404493 -0.2662626,0.875833 -0.099707,1.29279 0.248134,0.620901 0.9642102,1.116036 1.521662,1.421955 0.2741937,0.150692 0.8667694,0.701347 1.2123441,1.256532 0.2594644,0.416956 0.3795657,0.71381 0.5461214,1.123967 0.098574,0.243603 0.2073449,0.508731 0.354639,0.82938 0.5325249,1.157959 2.1946829,2.179954 2.3827659,2.292124 0.913224,0.547254 2.448483,0.722874 3.576982,0.773861 l 0.139363,0.0034 c 0,0 0.0011,0 0.0011,0 0.271928,0 0.645829,-0.02606 1.137564,-0.08044 v 2.960612 c 0.0023,0.599374 -0.608438,0.735338 -1.41629,0.722875 l 0.619769,0.208477 c 2.373702,0.848641 4.923024,1.333579 7.591314,1.333579 2.66829,0 5.217612,-0.484938 7.594713,-1.332445 l 0.796522,-0.296855 c -0.805586,-0.02719 -1.574915,-0.158624 -1.581713,-0.641295 z"
     id="path843"
     inkscape:connector-curvature="0"
     style="opacity:0.05;stroke-width:1.13303196" />
  <path
     d="m 31.68309,45.297602 c -0.460011,0.05325 -1.451414,-0.123501 -1.451414,-0.900761 v -6.576117 c 0,-1.239537 -0.371635,-2.437152 -1.060518,-3.458014 6.701884,-1.084311 9.833584,-4.6375 9.833584,-11.117309 0,-2.534593 -0.77726,-4.751936 -2.310252,-6.596512 0.155225,-0.413557 0.263996,-0.849774 0.326313,-1.299588 0.198281,-1.445749 -0.01813,-2.363505 -0.208478,-3.173622 l -0.03059,-0.131432 C 36.580054,11.18201 36.342117,10.574704 36.33192,10.549778 l -0.125767,-0.319515 -0.343308,-0.03626 c 0,0 -0.20168,-0.02153 -0.508732,-0.02153 -0.431685,0 -1.069582,0.04192 -1.661025,0.243602 l -0.222074,0.07478 c -0.808985,0.273061 -1.573781,0.530259 -2.629767,1.160225 -0.376167,0.22434 -0.795388,0.488337 -1.247468,0.786324 C 27.856841,11.983063 25.977141,11.751925 24,11.751925 c -1.996402,0 -3.891965,0.232271 -5.641366,0.691149 -0.456612,-0.300253 -0.8781,-0.565383 -1.256533,-0.791989 -1.055985,-0.629966 -1.820782,-0.888297 -2.629767,-1.160225 L 14.25026,10.41608 c -0.59031,-0.200547 -1.22934,-0.243602 -1.661025,-0.243602 -0.307051,0 -0.508731,0.02153 -0.508731,0.02153 l -0.342176,0.03626 -0.128032,0.320648 c -0.0102,0.02493 -0.248134,0.632232 -0.449814,1.494469 l -0.03059,0.131432 c -0.191482,0.810117 -0.407891,1.72674 -0.208478,3.172489 0.06345,0.461144 0.176753,0.907559 0.337644,1.33018 -1.5035337,1.835511 -2.2649312,4.041525 -2.2649312,6.56592 0,6.461681 3.1339662,10.013736 9.8415152,11.110511 -0.447547,0.668489 -0.760264,1.421955 -0.921155,2.225275 -0.3739,0.147294 -0.712677,0.244735 -1.009531,0.290056 -0.297988,0.04532 -0.608438,0.06798 -0.922288,0.06798 -0.781792,0 -1.532992,-0.146161 -1.914824,-0.372768 -0.498534,-0.295721 -1.197615,-1.035591 -1.781126,-1.886498 -0.396562,-0.577846 -1.186285,-1.605506 -2.025861,-1.988471 -0.7194758,-0.328579 -1.470676,-0.517795 -2.0632517,-0.517795 -0.1246335,0 -0.2379367,0.0091 -0.3376435,0.02493 -0.4146897,0.06572 -0.7568653,0.285524 -0.9381504,0.605039 -0.1450281,0.253799 -0.1688218,0.547255 -0.066849,0.802187 0.2028127,0.507598 0.9540129,0.963077 1.2678627,1.135298 0.3795657,0.208478 1.0412564,0.842976 1.4208221,1.454813 0.284391,0.457745 0.4192218,0.789723 0.5903098,1.208945 0.09631,0.236804 0.20168,0.495135 0.344442,0.806719 0.375033,0.81465 1.532992,1.667823 2.158426,2.042856 0.854306,0.512131 2.44055,0.654893 3.310719,0.693416 l 0.125766,0.0023 c 0.338777,0 0.906426,-0.05099 1.693883,-0.152959 v 3.599642 c 0,0.882632 -1.122834,0.917756 -1.398161,0.917756 -0.03512,0 0.569915,0.208478 0.569915,0.208478 2.224142,0.729673 4.593311,1.137564 7.061055,1.137564 2.467744,0 4.836913,-0.407891 7.059922,-1.136431 0,0 0.658292,-0.231138 0.623168,-0.226606 z"
     id="path845"
     inkscape:connector-curvature="0"
     style="opacity:0.07000002;stroke-width:1.13303196" />
  <path
     d="m 38.439359,23.245401 c 0,-2.617304 -0.886031,-4.788193 -2.398628,-6.490007 0.164289,-0.368236 0.335377,-0.862238 0.420354,-1.483139 0.194882,-1.41629 -0.03512,-2.266064 -0.230005,-3.09771 -0.194882,-0.831645 -0.424887,-1.416289 -0.424887,-1.416289 0,0 -1.044655,-0.106505 -1.929553,0.194881 -0.884898,0.301387 -1.646296,0.531392 -2.744204,1.186285 -0.513263,0.305918 -1.029926,0.641296 -1.43895,0.913223 C 27.945217,12.567708 26.022462,12.318441 24,12.318441 c -2.040591,0 -3.980341,0.2504 -5.741073,0.738736 -0.410157,-0.27306 -0.930219,-0.610704 -1.446882,-0.918889 -1.097908,-0.654892 -1.859305,-0.884897 -2.744203,-1.186284 -0.884898,-0.301386 -1.929554,-0.194881 -1.929554,-0.194881 0,0 -0.230005,0.584644 -0.424887,1.416289 -0.194881,0.831646 -0.424886,1.68142 -0.230005,3.09771 0.08724,0.636764 0.263996,1.13983 0.432818,1.510331 -1.484272,1.691617 -2.3544402,3.84891 -2.3544402,6.462815 0,6.77893 3.6619592,9.87324 10.3343842,10.690156 -0.778393,0.822581 -1.30072,1.876301 -1.47634,3.048989 -0.438484,0.192616 -0.943816,0.373901 -1.429887,0.446415 -1.250867,0.189216 -2.573115,0 -3.209879,-0.3773 -0.636764,-0.3773 -1.392496,-1.227073 -1.959012,-2.054187 -0.47814,-0.697948 -1.168156,-1.508065 -1.79359,-1.793589 -0.8259804,-0.3773 -1.6293,-0.518929 -2.0768476,-0.448681 -0.4486807,0.07138 -0.6605577,0.401093 -0.566516,0.637897 0.094042,0.235671 0.5427223,0.59031 1.0151966,0.849774 0.4724743,0.259464 1.204413,0.967609 1.6293,1.65196 0.473607,0.763664 0.566516,1.204413 0.967609,2.076848 0.282125,0.614103 1.247468,1.381166 1.935219,1.79359 0.590309,0.354639 1.769796,0.556318 3.04559,0.614103 0.440749,0.0204 1.482006,-0.108771 2.360105,-0.233405 v 4.24887 c 0,0.724008 -0.662823,1.274661 -1.349441,1.147762 2.203747,0.741002 4.557055,1.117169 7.012335,1.117169 2.454147,0 4.807455,-0.376167 7.013468,-1.114903 -0.685485,0.125766 -1.348308,-0.424887 -1.348308,-1.148895 v -6.576117 c 0,-1.5058 -0.597108,-2.866571 -1.555653,-3.880635 6.623705,-0.795388 10.329852,-3.816051 10.329852,-10.694688 z M 9.5413792,33.88797 C 9.3668923,33.79846 9.2728507,33.633038 9.3317683,33.516335 c 0.058918,-0.116702 0.2492671,-0.13823 0.423754,-0.04872 0.1744869,0.08951 0.2685287,0.254932 0.2096109,0.371634 -0.058918,0.116703 -0.249267,0.13823 -0.423754,0.04872 z m 1.3732348,0.855439 c -0.09178,0.09971 -0.288923,0.06798 -0.440749,-0.07025 -0.151827,-0.13823 -0.200547,-0.331978 -0.108772,-0.431685 0.09178,-0.09971 0.288924,-0.06798 0.44075,0.07025 0.151826,0.13823 0.200547,0.331978 0.108771,0.431685 z m 0.854306,1.41629 c -0.115569,0.08158 -0.311584,0.0057 -0.43735,-0.169955 -0.125767,-0.17562 -0.133698,-0.385231 -0.01813,-0.466809 0.115569,-0.08158 0.311584,-0.0057 0.437351,0.169955 0.124633,0.17562 0.133697,0.385231 0.01813,0.466809 z m 1.227074,1.066183 c -0.07818,0.1269 -0.300254,0.132565 -0.495135,0.0136 -0.194882,-0.118968 -0.290056,-0.318382 -0.211877,-0.445281 0.07818,-0.1269 0.300253,-0.132565 0.495135,-0.0136 0.194881,0.118969 0.290056,0.318382 0.211877,0.445281 z m 1.160224,1.043522 c -0.241335,-0.02946 -0.420354,-0.180152 -0.39996,-0.33651 0.01926,-0.156358 0.231139,-0.258331 0.471341,-0.228873 0.241336,0.02946 0.420355,0.180153 0.399961,0.336511 -0.01926,0.155225 -0.230006,0.258331 -0.471342,0.228872 z m 1.870636,0.270795 c -0.257198,-0.01473 -0.457745,-0.162024 -0.447547,-0.327446 0.0102,-0.165423 0.226606,-0.288923 0.483804,-0.274194 0.257198,0.01473 0.457745,0.162024 0.447548,0.327446 -0.0102,0.166556 -0.226607,0.288923 -0.483805,0.274194 z m 1.765264,-0.176753 c -0.274194,0 -0.496268,-0.142762 -0.496268,-0.318382 0,-0.17562 0.222074,-0.318382 0.496268,-0.318382 0.274194,0 0.496268,0.142762 0.496268,0.318382 0,0.17562 -0.223207,0.318382 -0.496268,0.318382 z"
     id="path847"
     inkscape:connector-curvature="0"
     style="fill:#ffffff;stroke-width:1.13303196" />
</svg>
